<svg width="24" height="24" viewBox="0 0 24 24" fill="none" xmlns="http://www.w3.org/2000/svg">
<mask id="mask0_750_347" style="mask-type:alpha" maskUnits="userSpaceOnUse" x="0" y="0" width="24" height="24">
<rect width="23.7828" height="23.7828" fill="#D9D9D9"/>
</mask>
<g mask="url(#mask0_750_347)">
<path d="M10.9005 21.801V18.8281H12.8824V21.801H10.9005ZM1.98193 12.8824V10.9005H4.95478V12.8824H1.98193ZM18.8281 12.8824V10.9005H21.8009V12.8824H18.8281ZM17.8371 19.72L15.7561 17.639L17.1435 16.2516L19.2245 18.3326L17.8371 19.72ZM5.94573 19.72L4.5584 18.3326L6.6394 16.2516L8.02673 17.639L5.94573 19.72ZM11.8914 16.8462C10.5206 16.8462 9.35212 16.3631 8.38595 15.3969C7.41977 14.4308 6.93668 13.2623 6.93668 11.8915C6.93668 11.0987 7.11423 10.3596 7.46932 9.6742C7.82441 8.98879 8.3075 8.40661 8.91858 7.92765V2.9729H14.8643V7.92765C15.4754 8.40661 15.9585 8.98879 16.3135 9.6742C16.6686 10.3596 16.8462 11.0987 16.8462 11.8915C16.8462 13.2623 16.3631 14.4308 15.3969 15.3969C14.4307 16.3631 13.2622 16.8462 11.8914 16.8462ZM10.9005 7.0358C11.0656 7.00276 11.2308 6.97799 11.396 6.96147C11.5611 6.94496 11.7263 6.9367 11.8914 6.9367C12.0566 6.9367 12.2218 6.94496 12.3869 6.96147C12.5521 6.97799 12.7172 7.00276 12.8824 7.0358V4.9548H10.9005V7.0358ZM11.8914 14.8643C12.7172 14.8643 13.4191 14.5753 13.9972 13.9972C14.5753 13.4192 14.8643 12.7172 14.8643 11.8915C14.8643 11.0657 14.5753 10.3637 13.9972 9.78568C13.4191 9.20763 12.7172 8.9186 11.8914 8.9186C11.0656 8.9186 10.3637 9.20763 9.78566 9.78568C9.20761 10.3637 8.91858 11.0657 8.91858 11.8915C8.91858 12.7172 9.20761 13.4192 9.78566 13.9972C10.3637 14.5753 11.0656 14.8643 11.8914 14.8643Z" fill="#1C1B1F"/>
</g>
</svg>
